<svg width="80" height="80" viewBox="0 0 185 185" fill="none" xmlns="http://www.w3.org/2000/svg">
<path d="M58.6262 151.16C63.7713 154.131 70.3919 154.337 77.8216 151.762C85.2507 149.186 93.2269 143.917 100.949 136.484C108.672 129.051 115.869 119.717 121.814 109.42C127.762 99.1227 132.248 88.2258 134.825 77.823C137.403 67.4205 137.979 57.8791 136.495 50.1585C135.012 42.4378 131.522 36.8086 126.378 33.8393" stroke="black" stroke-width="2" stroke-linecap="round"/>
<path d="M58.625 151.16C68.9154 157.101 80.5906 160.226 92.4752 160.222C104.361 160.218 116.037 157.084 126.333 151.137C136.628 145.189 145.178 136.636 151.125 126.34C157.071 116.043 160.203 104.363 160.209 92.4758C160.213 80.5878 157.088 68.9106 151.15 58.6183C145.21 48.3249 136.666 39.7784 126.376 33.8394" stroke="black" stroke-width="2" stroke-linecap="round"/>
<path d="M126.374 33.839C121.229 30.8693 114.609 30.6616 107.18 33.2384C99.7506 35.8137 91.773 41.0839 84.0503 48.516C76.3279 55.9487 69.1312 65.2827 63.1855 75.5797C54.2008 91.1379 48.673 107.841 47.8183 122.015C46.9622 136.189 50.849 146.674 58.6249 151.16" stroke="black" stroke-width="2" stroke-linecap="round"/>
<path d="M36.5425 130.67C36.5425 130.67 37.718 131.348 39.9494 132.636C42.182 133.926 45.393 135.779 49.2601 138.012C57.1298 142.555 66.8262 148.152 74.6968 152.695C78.5639 154.925 81.7749 156.779 84.0076 158.067C86.2402 159.356 87.4157 160.034 87.4145 160.034" stroke="black" stroke-width="2" stroke-linecap="round"/>
<path d="M27.8067 72.5625C27.8054 72.5625 30.4456 74.0861 35.462 76.9822C40.4783 79.8782 47.693 84.0429 56.3839 89.0599C65.0714 94.0751 74.9279 99.7635 84.9599 105.555C94.9926 111.346 104.847 117.034 113.537 122.05C122.227 127.065 129.441 131.229 134.458 134.126C139.474 137.02 142.116 138.545 142.114 138.544" stroke="black" stroke-width="2" stroke-linecap="round"/>
<path d="M25.5431 102.618C25.5418 102.618 27.6601 103.839 31.6824 106.162C35.7046 108.484 41.4915 111.824 48.4587 115.847C55.4263 119.869 63.33 124.431 71.3758 129.076C79.4216 133.719 87.3256 138.282 94.2935 142.303C101.261 146.326 107.048 149.665 111.07 151.987C115.094 154.31 117.211 155.531 117.211 155.531" stroke="black" stroke-width="2" stroke-linecap="round"/>
<path d="M42.8818 46.4561C42.8818 46.4575 45.5235 47.9811 50.5398 50.8772C55.5561 53.7733 62.7709 57.9379 71.4589 62.9535C80.1477 67.9687 90.0023 73.658 100.035 79.4489C110.068 85.2398 119.924 90.928 128.613 95.9436C137.301 100.959 144.517 105.124 149.533 108.018C154.55 110.914 157.19 112.438 157.19 112.438" stroke="black" stroke-width="2" stroke-linecap="round"/>
<path d="M67.7881 29.4701C67.7868 29.4701 76.523 34.5129 90.7036 42.6987C97.6712 46.7214 105.575 51.283 113.619 55.9273C121.665 60.5705 129.569 65.1336 136.537 69.1552C150.718 77.3402 159.454 82.383 159.454 82.383" stroke="black" stroke-width="2" stroke-linecap="round"/>
<path d="M97.5821 24.9672C97.5821 24.9672 98.7563 25.6469 100.989 26.9352C103.222 28.2235 106.433 30.0771 110.3 32.3106C118.169 36.8525 127.866 42.4505 135.735 46.9923C139.602 49.2245 142.815 51.0781 145.047 52.3664C147.279 53.6548 148.454 54.3331 148.454 54.3318" stroke="black" stroke-width="2" stroke-linecap="round"/>
<path d="M33.8755 58.6598C15.1674 91.0577 26.2458 132.471 58.6241 151.16C91.0005 169.85 132.413 158.737 151.123 126.34C169.832 93.9425 158.751 52.5285 126.374 33.8397C93.9975 15.1509 52.5836 26.2638 33.8755 58.6598" stroke="black" stroke-width="2" stroke-linecap="round"/>
</svg>
